<svg height="512" viewBox="0 0 60 52" width="512" xmlns="http://www.w3.org/2000/svg"><g id="012---Right-Arrow" fill="none"><g id="Icons" transform="translate(1 1)"><path id="Shape" d="m58 21v8c.0026446.3029471-.1337086.5903944-.37.78l-25 19.89c-.2985572.2422134-.7095361.2918237-1.0571539.1276116s-.5703173-.5131674-.5728461-.8976116v-8.9c0-.5522847-.4477153-1-1-1h-29c-.55228475 0-1-.4477153-1-1v-26c0-.5522847.44771525-1 1-1h29c.5522847 0 1-.4477153 1-1v-8.89c-.001317-.38625019.2199275-.73872376.5683429-.90545013.3484153-.16672637.7616972-.11789115 1.0616571.12545013l25 19.9c.2341275.1869523.3703243.470389.37.77z" fill="#ef314c"/><path id="Shape" d="m57.63 20.23-25-19.9c-.2999599-.24334128-.7132418-.2921765-1.0616571-.12545013-.3484154.16672637-.5696599.51919994-.5683429.90545013v.31l23.63 18.81c.2341275.1869523.3703243.470389.37.77v8c.0026446.3029471-.1337086.5903944-.37.78l-23.63 18.8v.32c.0025288.3844442.2252283.7333995.5728461.8976116s.7585967.1146018 1.0571539-.1276116l25-19.89c.2362914-.1896056.3726446-.4770529.37-.78v-8c.0003243-.299611-.1358725-.5830477-.37-.77z" fill="#bb193b"/><path id="Shape" d="m31 32v8c0-.5522847-.4477153-1-1-1h-29c-.55228475 0-1-.4477153-1-1v-8c0 .5522847.44771525 1 1 1h29c.5522847 0 1 .4477153 1 1z" fill="#673ab7"/><path id="Shape" d="m58.0000378 21-.0000378 8c.0026446.3029471-.1337086.5903944-.37.78l-25 19.89c-.1839712.1487752-.4134002.2299578-.65.23-.5444587-.0108913-.9801089-.4554324-.98-1v-8c-.0001089.5445676.4355413.9891087.98 1 .2365998-.0000422.4660288-.0812248.65-.23l22.37-17.8 2.63-2.09c.2362914-.1896056.3726446-.4770529.3700378-.78z" fill="#673ab7"/><path id="Shape" d="m57.63 21.78-2.63 2.09v5.13c.0026446.3029471-.1337086.5903944-.37.78l-23.63 18.8v.32c-.0001089.5445676.4355413.9891087.98 1 .2365998-.0000422.4660288-.0812248.65-.23l25-19.89c.2362914-.1896056.3726446-.4770529.37-.78l.0000378-8c.0026068.3029471-.1337464.5903944-.3700378.78z" fill="#4527a0"/></g><g id="Layer_10" fill="#000"><path id="Shape" d="m59.264 20.45-25-19.895c-.5984408-.48803872-1.4243771-.5879576-2.121933-.25670403-.6975559.33125356-1.1420914 1.03449087-1.142067 1.80670403v8.895h-29c-1.1045695 0-2 .8954305-2 2v26c0 1.1045695.8954305 2 2 2h29v8.9c.0025494.7682143.4448916 1.4670764 1.1381189 1.7981286.6932273.3310523 1.51481.2357804 2.1138811-.2451286l25-19.891c.4750591-.3789007.7506258-.9543488.748-1.562v-8c.000019-.6010079-.2702379-1.170163-.736-1.55zm-57.264-7.45h29c1.105154-.000546 2.0016946-.8948508 2.005-2v-8.888l24.995 19.888-25 19.9v-8.9c0-1.1045695-.8954305-2-2-2h-29zm0 26v-6h29v6zm31 10.9v-6c.4562405-.0000581.898477-.157596 1.252-.446l23.751-18.9v5.446z"/><path id="Shape" d="m5 17h17c.5522847 0 1-.4477153 1-1s-.4477153-1-1-1h-17c-.55228475 0-1 .4477153-1 1s.44771525 1 1 1z"/><path id="Shape" d="m26 17h5c.5522847 0 1-.4477153 1-1s-.4477153-1-1-1h-5c-.5522847 0-1 .4477153-1 1s.4477153 1 1 1z"/></g></g></svg>