<svg height="512" viewBox="0 0 58 58" width="512" xmlns="http://www.w3.org/2000/svg"><g id="Page-1" fill="none" fill-rule="evenodd"><g id="025---Schedule" fill-rule="nonzero"><path id="Shape" d="m1 14h56v41c0 1.6568542-1.3431458 3-3 3h-50c-1.65685425 0-3-1.3431458-3-3z" fill="#ecf0f1"/><path id="Shape" d="m9 5h45c2.209139 0 4 1.790861 4 4v6c0 .5522847-.4477153 1-1 1h-56c-.55228475 0-1-.4477153-1-1v-6c0-2.209139 1.790861-4 4-4z" fill="#e64c3c"/><rect id="Rectangle-path" fill="#bdc3c7" height="10" rx="2" width="5" x="4"/><rect id="Rectangle-path" fill="#bdc3c7" height="10" rx="2" width="5" x="19"/><rect id="Rectangle-path" fill="#bdc3c7" height="10" rx="2" width="5" x="34"/><rect id="Rectangle-path" fill="#bdc3c7" height="10" rx="2" width="5" x="49"/><path id="Rectangle-path" d="m17 46h27v8h-27z" fill="#f3d55b"/><path id="Shape" d="m12 46v8h-4c-1.65685425 0-3-1.3431458-3-3v-2c0-1.6568542 1.34314575-3 3-3z" fill="#ff5364"/><path id="Rectangle-path" d="m12 46h5v8h-5z" fill="#bdc3c7"/><path id="Shape" d="m53 50-5 2.22v-4.44z" fill="#464f5d"/><path id="Shape" d="m48 47.78v4.44l-4 1.78v-8z" fill="#fdd7ad"/><path id="Shape" d="m22 50c0 .5522847-.4477153 1-1 1h-4v-2h4c.5522847 0 1 .4477153 1 1z" fill="#f0c419"/><path id="Shape" d="m44 49v2h-19c-.5522847 0-1-.4477153-1-1s.4477153-1 1-1z" fill="#f0c419"/><path id="Shape" d="m28 31c-.0061945 5.511442-4.094404 10.1655974-9.559046 10.8823396-5.4646421.7167422-10.61480221-2.7257089-12.04209748-8.0491345-1.42729526-5.3234256 1.30991976-10.8806077 6.40015238-12.9937956 5.0902327-2.1131879 10.9584215-.1285018 13.7209911 4.6405905.971309 1.6773631 1.4818936 3.5817057 1.48 5.52z" fill="#9fc9d3"/><path id="Shape" d="m28 31c-.0024475 3.9331586-2.1034108 7.5661243-5.5112179 9.5299454-3.4078072 1.9638211-7.6045287 1.9600297-11.0087821-.0099454-2.49749547-4.3154764-1.78215792-9.7708006 1.7435207-13.2964793 3.5256787-3.5256786 8.9810029-4.2410162 13.2964793-1.7435207.9720618 1.6770506 1.4827018 3.5815998 1.48 5.52z" fill="#84b5cb"/><path id="Shape" d="m51 22h-19c-.5522847 0-1-.4477153-1-1s.4477153-1 1-1h19c.5522847 0 1 .4477153 1 1s-.4477153 1-1 1z" fill="#bdc3c7"/><path id="Shape" d="m51 27h-19c-.5522847 0-1-.4477153-1-1s.4477153-1 1-1h19c.5522847 0 1 .4477153 1 1s-.4477153 1-1 1z" fill="#bdc3c7"/><path id="Shape" d="m51 32h-19c-.5522847 0-1-.4477153-1-1s.4477153-1 1-1h19c.5522847 0 1 .4477153 1 1s-.4477153 1-1 1z" fill="#bdc3c7"/><path id="Shape" d="m51 37h-19c-.5522847 0-1-.4477153-1-1s.4477153-1 1-1h19c.5522847 0 1 .4477153 1 1s-.4477153 1-1 1z" fill="#bdc3c7"/><path id="Shape" d="m42 42h-10c-.5522847 0-1-.4477153-1-1s.4477153-1 1-1h10c.5522847 0 1 .4477153 1 1s-.4477153 1-1 1z" fill="#bdc3c7"/><g fill="#285680"><path id="Shape" d="m17 22.692c-.5522847 0-1-.4477153-1-1v-1.692c0-.5522847.4477153-1 1-1s1 .4477153 1 1v1.692c0 .5522847-.4477153 1-1 1z"/><path id="Shape" d="m17 43c-.5522847 0-1-.4477153-1-1v-1.692c0-.5522847.4477153-1 1-1s1 .4477153 1 1v1.692c0 .5522847-.4477153 1-1 1z"/><path id="Shape" d="m28 32h-1.692c-.5522847 0-1-.4477153-1-1s.4477153-1 1-1h1.692c.5522847 0 1 .4477153 1 1s-.4477153 1-1 1z"/><path id="Shape" d="m7.692 32h-1.692c-.55228475 0-1-.4477153-1-1s.44771525-1 1-1h1.692c.55228475 0 1 .4477153 1 1s-.44771525 1-1 1z"/><path id="Shape" d="m7.475 37.5c-.45258806-.0000199-.84874105-.3040116-.96588095-.7411777s.07393969-.8985084.46588095-1.1248223l1.465-.846c.30957042-.1814844.69264947-.1831833 1.00381742-.0044519.31116795.1787315.50271357.5104885.50192468.8693336-.00078888.3588451-.19379132.6897567-.5057421.8671183l-1.465.846c-.15201675.0877772-.32446103.1339923-.5.134z"/><path id="Shape" d="m25.062 27.346c-.4525881-.0000199-.8487411-.3040116-.9658809-.7411777-.1171399-.4371661.0739396-.8985084.4658809-1.1248223l1.465-.846c.3095704-.1814844.6926495-.1831833 1.0038174-.0044519.311168.1787315.5027136.5104885.5019247.8693336s-.1937913.6897567-.5057421.8671183l-1.465.846c-.1520167.0877772-.324461.1339923-.5.134z"/><path id="Shape" d="m12.347 23.939c-.3576137.0003484-.6881932-.1902972-.867-.5l-.846-1.465c-.1814844-.3095704-.1831833-.6926495-.0044519-1.0038174.1787315-.311168.5104885-.5027136.8693336-.5019247s.6897567.1937913.8671183.5057421l.846 1.465c.1785415.3092425.1786393.6902222.0002566.9995563s-.5081742.5000777-.8652566.5004437z"/><path id="Shape" d="m22.5 41.526c-.3576137.0003484-.6881932-.1902972-.867-.5l-.846-1.465c-.1814844-.3095704-.1831833-.6926495-.0044519-1.0038174.1787315-.311168.5104885-.5027136.8693336-.5019247s.6897567.1937913.8671183.5057421l.846 1.465c.1785415.3092425.1786393.6902222.0002566.9995563s-.5081742.5000777-.8652566.5004437z"/><path id="Shape" d="m11.5 41.526c-.3570824-.000366-.6868739-.1911096-.8652566-.5004437s-.1782849-.6903138.0002566-.9995563l.846-1.465c.1773616-.3119508.5082732-.5049532.8671183-.5057421s.6906021.1907567.8693336.5019247c.1787314.3111679.1770325.694247-.0044519 1.0038174l-.846 1.465c-.1788068.3097028-.5093863.5003484-.867.5z"/><path id="Shape" d="m21.653 23.939c-.3570824-.000366-.6868739-.1911096-.8652566-.5004437s-.1782849-.6903138.0002566-.9995563l.846-1.465c.1773616-.3119508.5082732-.5049532.8671183-.5057421s.6906021.1907567.8693336.5019247c.1787314.3111679.1770325.694247-.0044519 1.0038174l-.846 1.465c-.1788068.3097028-.5093863.5003484-.867.5z"/><path id="Shape" d="m8.938 27.346c-.17553897-.0000077-.34798325-.0462228-.5-.134l-1.465-.846c-.31195078-.1773616-.50495322-.5082732-.5057421-.8671183-.00078889-.3588451.19075673-.6906021.50192468-.8693336.31116795-.1787314.694247-.1770325 1.00381742.0044519l1.465.846c.39194126.2263139.5830208.6876562.46588095 1.1248223-.1171399.4371661-.51329289.7411578-.96588095.7411777z"/><path id="Shape" d="m26.525 37.5c-.175539-.0000077-.3479833-.0462228-.5-.134l-1.465-.846c-.3119508-.1773616-.5049532-.5082732-.5057421-.8671183s.1907567-.6906021.5019247-.8693336c.3111679-.1787314.694247-.1770325 1.0038174.0044519l1.465.846c.3919413.2263139.5830208.6876562.4658809 1.1248223-.1171398.4371661-.5132928.7411578-.9658809.7411777z"/><path id="Shape" d="m19 35c-.3346327.0003846-.6472789-.1666353-.833-.445l-2-3c-.1089067-.1646115-.1669841-.3576231-.167-.555v-6c0-.5522847.4477153-1 1-1s1 .4477153 1 1v5.7l1.832 2.748c.2030724.3067571.2213171.7002429.0475019 1.0244752-.1738153.3242323-.5116189.5268468-.8795019.5275248z"/></g><path id="Shape" d="m17 43c-6.627417 0-12-5.372583-12-12s5.372583-12 12-12 12 5.372583 12 12c-.0071648 6.624447-5.375553 11.9928352-12 12zm0-22c-5.5228475 0-10 4.4771525-10 10s4.4771525 10 10 10 10-4.4771525 10-10c-.0060624-5.5203344-4.4796656-9.9939376-10-10z" fill="#3b97d3"/></g></g></svg>