<?xml version="1.0" encoding="iso-8859-1"?>
<!-- Generator: Adobe Illustrator 19.0.0, SVG Export Plug-In . SVG Version: 6.00 Build 0)  -->
<svg version="1.1" id="Capa_1" xmlns="http://www.w3.org/2000/svg" xmlns:xlink="http://www.w3.org/1999/xlink" x="0px" y="0px"
	 viewBox="0 0 512.001 512.001" style="enable-background:new 0 0 512.001 512.001;" xml:space="preserve">
<path style="fill:#FF3535;" d="M13.77,75.795c-3.811,16.696-2.619,35.627-2.104,52.659c0.237,7.833,0.185,15.667,0.336,23.514
	c0.083,4.338-0.3,9.727,1.104,13.895c2.202,6.535,7.535,5.233,13.596,4.938c13.568-0.661,27.28,0.655,40.806-0.001
	c9.07-0.44,17.11,2.036,25.959,1.974c9.973-0.07,19.755-2.48,29.704-2.878c15.145-0.606,30.266,0.947,45.443,0.019
	c30.564-1.868,61.233-0.935,91.848-2.252c59.792-2.572,120.204-4.311,180.054-2.911c12.88,0.301,25.735-0.076,38.604,0.493
	c2.964,0.131,13.269,2.761,15.878,0.683c3.498-2.786,2.686-15.066,3.181-19.326c1.404-12.088,1.086-24.969,1.061-37.134
	c-0.018-8.894,1.884-32.356-6.782-37.908c-3.422-2.192-9.445-1.306-13.314-1.754c-6.906-0.8-13.86-2.116-20.516-4.137
	c-7.777-2.362-13.721-7.653-22.08-8.353c-9.002-0.754-18.376,0.035-27.395,0.305c-62.14,1.858-124.155,4.729-186.405,4.729
	c-29.881,0-59.683-0.225-89.5-1.31c-18.13-0.66-36.155,0.038-54.256,1.312c-8.576,0.604-17.04,1.126-25.626,1.415
	C40.479,64.2,23.811,67.16,13.77,75.795z"/>
<path style="fill:#FFDC0F;" d="M97.748,4.319c-7.21-2.968-18.187,1.537-24.411,5.19c-9.466,5.555-6.324,20.605-5.888,30.281
	c0.532,11.815,0.937,23.586,1.049,35.436c0.057,6.033-0.204,13.381,2.832,18.733c6.282,11.072,23.938,12.67,35.027,10.022
	c5.967-1.425,13.043-4.392,14.532-11.048c1.987-8.881,0.216-21.105-0.128-30.123c-0.476-12.483-0.151-25.731-2.335-38.07
	C116.054,11.337,105.131,9.956,97.748,4.319z"/>
<path style="fill:#7F7F7F;" d="M58.59,129.815c6.319,9.242,13.808,14.989,25.347,15.567c11.609,0.582,24.004-2.779,33.159-9.901
	c11.137-8.664,14.999-29.421,5.679-40.991c-8.195,2.598-14.823,10.15-23.61,12.349c-8.026,2.008-19.234,3.833-25.973-1.927
	c-4.55-3.89-6.627-12.635-11.77-4.923C54.289,110.685,52.872,125.294,58.59,129.815z"/>
<path style="fill:#FFDC0F;" d="M208.147,4.319c-7.21-2.968-18.187,1.537-24.411,5.19c-9.466,5.555-6.324,20.605-5.888,30.281
	c0.532,11.815,0.937,23.586,1.049,35.436c0.057,6.033-0.204,13.381,2.832,18.733c6.282,11.072,23.938,12.67,35.027,10.022
	c5.967-1.425,13.043-4.392,14.532-11.048c1.987-8.881,0.216-21.105-0.128-30.123c-0.476-12.483-0.151-25.731-2.335-38.07
	C226.453,11.337,215.529,9.956,208.147,4.319z"/>
<path style="fill:#7F7F7F;" d="M168.988,129.815c6.319,9.242,13.808,14.989,25.347,15.567c11.609,0.582,24.004-2.779,33.159-9.901
	c11.137-8.664,14.999-29.421,5.679-40.991c-8.195,2.598-14.823,10.15-23.61,12.349c-8.026,2.008-19.234,3.833-25.973-1.927
	c-4.55-3.89-6.627-12.635-11.77-4.923C164.688,110.685,163.27,125.294,168.988,129.815z"/>
<path style="fill:#FFDC0F;" d="M318.545,4.319c-7.21-2.968-18.187,1.537-24.411,5.19c-9.466,5.555-6.324,20.605-5.888,30.281
	c0.532,11.815,0.937,23.586,1.049,35.436c0.057,6.033-0.204,13.381,2.832,18.733c6.282,11.072,23.938,12.67,35.027,10.022
	c5.967-1.425,13.043-4.392,14.532-11.048c1.987-8.881,0.216-21.105-0.128-30.123c-0.476-12.483-0.151-25.731-2.335-38.07
	C336.852,11.337,325.928,9.956,318.545,4.319z"/>
<path style="fill:#7F7F7F;" d="M279.387,129.815c6.319,9.242,13.808,14.989,25.347,15.567c11.609,0.582,24.004-2.779,33.159-9.901
	c11.137-8.664,14.999-29.421,5.68-40.991c-8.195,2.598-14.823,10.15-23.611,12.349c-8.026,2.008-19.235,3.833-25.973-1.927
	c-4.55-3.89-6.627-12.635-11.77-4.923C275.086,110.685,273.669,125.294,279.387,129.815z"/>
<path style="fill:#FFDC0F;" d="M428.944,4.319c-7.21-2.968-18.187,1.537-24.411,5.19c-9.466,5.555-6.324,20.605-5.888,30.281
	c0.532,11.815,0.937,23.586,1.049,35.436c0.057,6.033-0.204,13.381,2.832,18.733c6.282,11.072,23.938,12.67,35.027,10.022
	c5.967-1.425,13.043-4.392,14.532-11.048c1.987-8.881,0.216-21.105-0.128-30.123c-0.476-12.483-0.151-25.731-2.335-38.07
	C447.25,11.337,436.327,9.956,428.944,4.319z"/>
<path style="fill:#7F7F7F;" d="M389.785,129.815c6.319,9.242,13.808,14.989,25.347,15.567c11.609,0.582,24.004-2.779,33.159-9.901
	c11.137-8.664,14.999-29.421,5.68-40.991c-8.195,2.598-14.823,10.15-23.611,12.349c-8.026,2.008-19.235,3.833-25.973-1.927
	c-4.55-3.89-6.627-12.635-11.77-4.923C385.485,110.685,384.068,125.294,389.785,129.815z"/>
<path style="fill:#F4F4F4;" d="M12.826,177.937c2.998,12.104-0.256,26.974,0.344,39.344c0.906,18.678,0.181,37.423,1.543,56.073
	c1.829,25.055-0.822,50.497-0.942,75.607c-0.101,21.12-1.338,42.289-0.513,63.369c0.466,11.91,0.891,23.797,0.974,35.737
	c0.092,13.205-6.329,38.596,7.995,46.839c9.499,5.465,21.989,4.79,32.475,4.79c32.657,0,66.2,0.715,98.643,4.257
	c17.35,1.894,36.286,1.903,53.699,0.59c16.818-1.268,34.005-0.599,50.895-0.601c18.958-0.003,37.778-2.185,56.705-2.855
	c20.946-0.742,41.948-0.468,62.916-0.447c23.471,0.023,48.414-0.537,71.459-5.409c13.293-2.81,27.419-6.565,34.871-18.841
	c8.451-13.923,9.532-27.795,11.091-43.688c2.914-29.713,5.203-60.121,5.203-90.107c0-17.726-1.775-35.076-2.79-52.726
	c-1.967-34.177-0.04-67.821-0.04-101.988c0-5.584-1.744-13.567-0.047-18.837c-20.096,0.857-40.749-3.113-61.028-2.448
	c-21.39,0.701-42.894,1.47-64.306,1.435c-14.936-0.025-29.815,1.268-44.736,1.423c-13.221,0.137-26.167-1.215-39.325-1.235
	c-21.854-0.032-43.993,1.559-65.839,2.274c-19.206,0.629-38.173-0.919-57.316-1.056c-32.025-0.23-64.734-0.248-96.748,1.056
	c-11.942,0.487-24.035,0.745-35.99,0.262c-5.503-0.223-11.35-1.035-16.759,0.147C15.003,174.334,15.347,177.786,12.826,177.937z"/>
<path style="fill:#FF3535;" d="M425.169,317.587c-19.181-6.57-40.512-15.297-61.161-13.092
	c-20.281,2.166-37.533,9.218-51.111,24.413c-10.546,11.801-15.784,25.222-16.632,41.021c-0.946,17.615,5.099,31.722,17.666,43.641
	c25.707,24.38,59.271,29.299,92.498,18.235c13.442-4.476,26.83-9.932,36.407-20.555c7.428-8.24,13.663-19.251,15.737-30.349
	c1.922-10.286,2.17-23.785-1.354-33.737C451.408,330.75,433.042,319.526,425.169,317.587z"/>
<path d="M504.014,232.773c0.101-27.739,1.072-55.53,1.041-83.325c-0.015-13.459-0.855-27.004-2.094-40.392
	c-0.98-10.589-0.843-21.936-3.134-32.329c-4.519-20.503-26.753-12.455-41.912-16.195c1.684-26.302,1.937-57.748-30.346-60.173
	c-12.523-0.941-28.264-1.122-31.28,13.817c-2.023,10.02-0.109,20.245,0.534,30.3c0.382,5.965,0.604,7.538-5.664,8.691
	c-4.295,0.79-8.745,0.33-13.082,0.665c-8.647,0-16.793,1.376-25.445,1.111c-1.301-0.04-2.679-0.103-3.762-0.826
	c-3.009-2.01-0.722-9.652-0.811-12.672c-0.19-6.497-0.803-13.117-2.782-19.34C341.098,8.96,330.88,1.389,317.172,0.359
	c-12.523-0.941-28.264-1.122-31.28,13.817c-2.036,10.087-0.165,20.492,0.556,30.62c0.581,8.129,1.118,11.172-8.169,10.838
	c-2.764-0.099-40.902,0.59-40.958,1.575c1.447-25.557,0.387-54.526-30.547-56.85c-12.523-0.941-28.265-1.122-31.28,13.817
	c-2.297,11.381,0.573,22.791,0.757,34.211c0.067,4.127-0.538,7.134-5.247,8.407c-4.688,1.268-10.542,0.039-15.4,0.104
	c-9.332,0.126-19.177-1.561-28.616-0.924c1.338-25.247-0.177-53.328-30.613-55.615C83.852-0.582,68.11-0.762,65.095,14.177
	c-2.244,11.117,0.438,23.308,0.747,34.559c0.081,2.955,0.087,5.911,0.105,8.867c-16.105,3.371-37.018-1.632-51.084,8.949
	C1.294,76.76,6.178,103.776,6.537,118.077C7.85,170.444,9.301,223.085,7.601,275.47c-1.728,53.221-0.686,107.016,1.715,160.209
	c0.793,17.57-4.851,42.757,3.834,59.161c8.049,15.203,34.26,13.33,48.427,14.08c52.813,2.794,105.969,1.379,158.824,2.864
	c52.321,1.469,104.607-4.976,156.966-5.705c25.923-0.361,52.484,0.658,78.29-1.713c20.493-1.883,31.499-9.126,38.103-28.562
	c7.747-22.799,8.366-47.23,9.27-71.023c1.068-28.104,2.36-56.201,3.381-84.314C507.477,291.085,503.908,262.009,504.014,232.773z
	 M406.317,76.461c0.261-18.134,1.732-35.981,0.806-54.038c0.06-0.274,0.099-0.565,0.167-0.832c2.374-9.211,6.849-9.796,15.601-9.222
	c20.507,1.344,22.685,14.095,23.685,31.3c0.779,13.408-0.259,26.753-2.242,40.014c-0.551,3.688-0.645,8.152-2.812,11.377
	c-3.763,5.6-15.504,7.576-21.749,7.347C405.307,101.876,406.153,87.901,406.317,76.461z M402.126,107.035
	c8.51,8.662,23.997,6.85,34.482,4.032c8.641-2.323,13.223-6.828,15.947-12.825c15.574,18.459-7.821,41.8-27.012,44.66
	c-15.077,2.247-33.985-5.107-34.202-22.899c-0.074-6.042,2.885-13.459,6.79-19.345C399.056,103.051,400.343,105.22,402.126,107.035z
	 M295.919,76.461c0.261-18.134,1.732-35.981,0.806-54.038c0.06-0.274,0.099-0.565,0.167-0.832c2.374-9.211,6.849-9.796,15.601-9.222
	c20.507,1.344,22.685,14.095,23.685,31.3c0.779,13.408-0.259,26.753-2.242,40.014c-0.552,3.688-0.645,8.152-2.812,11.377
	c-3.763,5.6-15.504,7.576-21.749,7.347C294.908,101.876,295.754,87.901,295.919,76.461z M287.732,100.657
	c0.926,2.394,2.212,4.563,3.996,6.378c8.51,8.662,23.997,6.85,34.482,4.032c8.641-2.323,13.223-6.828,15.947-12.825
	c15.574,18.459-7.821,41.8-27.012,44.66c-15.077,2.247-33.985-5.107-34.202-22.899C280.868,113.961,283.827,106.543,287.732,100.657
	z M185.52,76.461c0.261-18.134,1.732-35.981,0.806-54.038c0.06-0.274,0.098-0.565,0.167-0.832c2.374-9.211,6.85-9.796,15.601-9.222
	c20.507,1.344,22.685,14.095,23.685,31.3c0.779,13.408-0.259,26.753-2.242,40.014c-0.551,3.688-0.645,8.152-2.812,11.377
	c-3.763,5.6-15.504,7.576-21.748,7.347C184.51,101.876,185.355,87.901,185.52,76.461z M181.329,107.035
	c8.51,8.662,23.997,6.85,34.482,4.032c8.641-2.323,13.223-6.828,15.947-12.825c15.574,18.459-7.821,41.8-27.012,44.66
	c-15.077,2.247-33.985-5.107-34.202-22.899c-0.074-6.042,2.885-13.459,6.79-19.345C178.259,103.051,179.546,105.22,181.329,107.035z
	 M75.121,76.461c0.261-18.134,1.732-35.981,0.806-54.038c0.06-0.274,0.098-0.565,0.167-0.832c2.374-9.211,6.85-9.796,15.601-9.222
	c20.507,1.344,22.685,14.095,23.685,31.3c0.779,13.408-0.259,26.753-2.242,40.014c-0.551,3.688-0.645,8.152-2.812,11.377
	c-3.763,5.6-15.504,7.576-21.748,7.347C74.111,101.876,74.957,87.901,75.121,76.461z M66.935,100.657
	c0.926,2.394,2.213,4.563,3.996,6.378c8.51,8.662,23.997,6.85,34.482,4.032c8.641-2.323,13.223-6.828,15.947-12.825
	c15.574,18.459-7.821,41.8-27.012,44.66c-15.077,2.247-33.985-5.107-34.202-22.899C60.071,113.961,63.03,106.543,66.935,100.657z
	 M18.253,89.393c0.882-7.076,1.982-12.386,9.598-15.62c4.545-1.93,10.727-2.274,15.642-2.742c7.394-0.703,15.102-1.239,22.379-3.053
	c-0.042,2.189-0.05,4.38-0.127,6.568c-0.326,9.357-0.155,12.457-5.706,18.881c-7.173,8.302-11.811,19.446-10.324,30.656
	c2.431,18.341,18.693,29.027,36.182,30.095c17.389,1.062,35.415-6.897,44.826-21.844c6.726-10.689,9.741-24.764,3.351-36.324
	c-2.263-4.094-4.62-5.932-6.263-8.206c-1.33-1.842-2.191-3.969-2.155-7.812c0.041-4.287,0.37-9.174,0.724-14.362
	c8.08,0.65,16.106,1.851,24.213,2.072c7.983,0.218,15.925-0.641,23.821-0.378c0.668,0.022,1.29-0.155,1.877-0.411
	c-0.042,2.544-0.059,5.089-0.147,7.632c-0.326,9.357-0.155,12.457-5.706,18.881c-7.173,8.302-11.811,19.446-10.324,30.656
	c2.431,18.341,18.693,29.027,36.182,30.095c17.389,1.062,35.415-6.897,44.826-21.844c6.726-10.689,9.741-24.764,3.351-36.324
	c-2.263-4.094-4.62-5.932-6.263-8.206c-1.33-1.842-2.191-3.969-2.155-7.812c0.034-3.6,0.273-7.627,0.558-11.895
	c7.939,0.813,16.346-0.049,24.094,0.068c7.837,0.118,18.126,0.863,25.988-1.506c-0.042,2.629-0.061,5.258-0.152,7.886
	c-0.326,9.357-0.155,12.457-5.706,18.881c-7.173,8.302-11.811,19.446-10.324,30.656c2.431,18.341,18.693,29.027,36.182,30.095
	c17.389,1.062,35.415-6.897,44.826-21.844c6.726-10.689,9.741-24.764,3.351-36.324c-2.263-4.094-4.621-5.932-6.263-8.206
	c-1.33-1.842-2.191-3.969-2.155-7.812c0.037-3.922,0.317-8.349,0.635-13.045c5.676,0.681,12.364-0.774,17.472-0.953
	c8.823-0.31,22.14-2.94,30.608-0.423c0.602,0.179,1.27,0.202,1.942,0.156c-0.04,2.94-0.068,5.88-0.17,8.819
	c-0.327,9.357-0.155,12.457-5.706,18.881c-7.173,8.302-11.811,19.446-10.325,30.656c2.431,18.341,18.693,29.027,36.182,30.095
	c17.389,1.062,35.415-6.897,44.826-21.844c6.726-10.689,9.741-24.764,3.351-36.324c-2.263-4.094-4.621-5.932-6.263-8.206
	c-1.33-1.842-2.191-3.969-2.155-7.812c0.019-2.007,0.106-4.158,0.224-6.397c5.076,0.823,10.312,0.569,15.432,0.767
	c2.901,0.112,9.705-0.389,12.196,1.324c4.313,2.965,3.187,12.541,3.58,17.151c1.68,19.672,3.736,39.336,3.725,59.104
	c-0.002,2.857,0.012,5.718,0.033,8.581c-14.353-3.806-32.663-1.632-47.197-1.068c-20.715,0.803-41.429,1.655-62.182,2.289
	c-42.468,1.298-85.084,1.799-127.548,1.911c-44.028,0.116-88.246,1.207-132.274,2.763c-20.982,0.742-41.839-0.145-62.835,0.469
	c-9.02,0.264-18.007,1.026-27.03,1.288c-4.697,0.137-9.514,0.021-14.156,0.643c-0.003-0.462-0.001-0.926-0.005-1.388
	C18.612,141.888,15.093,114.75,18.253,89.393z M491.381,351.69c-0.643,24.042,0.039,48.317-1.665,72.302
	c-1.342,18.886-2.226,59.723-24.699,66.096c-10.592,3.004-22.728,1.79-33.66,2.438c-11.595,0.688-23.198-0.275-34.796,0.263
	c-22.701,1.053-45.483,0.89-68.19,2.072c-23.342,1.214-46.745,3.458-70.124,4.09c-43.987,1.189-88.157-0.916-132.184-1.597
	c-24.046-0.372-48.172-0.005-72.174-1.654c-10.084-0.693-26.525,0.9-30.532-10.616c-2.635-7.575-2.044-18.864-1.765-26.827
	c0.758-21.632-0.484-43.146-1.356-64.777c-0.971-24.082-0.14-48.225-0.979-72.32c-1.679-48.193-0.24-96.83-0.415-145.103
	c17.241,0.065,34.574,0.907,51.851,0.686c19.186-0.246,38.287,0.443,57.493-0.278c43.032-1.615,86.333-2.163,129.369-2.147
	c41.649,0.015,83.445-0.45,125.105-1.55c19.237-0.508,38.461-0.847,57.648-1.944c17.251-0.987,34.584,0.96,51.829,0.302
	c0.156,14.939,0.303,29.907-0.497,44.764c-1.168,21.689,1.753,42.988,1.749,64.663C493.387,304.365,492.016,327.924,491.381,351.69z
	"/>
<path d="M336.074,381.776c-2.663,1.581-2.459,6.422,0.921,7.048c11.716,2.172,23.729,1.827,35.57,1.581
	c5.063-0.105,5.07-8.039,0-7.873c-6.997,0.23-14.168,0.514-21.264,0.184c5.308-2.526,10.464-5.224,14.855-9.764
	c5.549-5.736,8.379-15.503,3.528-22.594c-3.852-5.631-11.624-6.651-17.88-5.303c-4.117,0.887-12.267,3.917-10.6,9.506
	c0.724,2.429,3.87,2.182,4.692,0c0.655-1.739,7.285-2.735,9.037-2.84c7.597-0.457,11.992,5.144,8.481,12.287
	C358.373,374.262,344.936,376.514,336.074,381.776z"/>
<path d="M412.464,353.049c-0.872-11.908-20.847-11.399-27.786-5.939c-7.743,6.097-0.076,15.543,5.885,20.83
	c-0.256,0.249-0.466,0.472-0.616,0.663c-2.795,3.56-5.58,8.999-5.635,13.663c-0.119,9.932,11.48,9.943,18.33,6.818
	c3.348-1.528,6.44-4.147,7.168-7.929c0.893-4.637-2.679-7.837-5.552-10.923c-0.552-0.593-1.407-1.314-2.416-2.113
	c1.059-0.794,2.132-1.589,3.185-2.436C408.746,362.693,412.843,358.212,412.464,353.049z M395.512,383.239
	c-4.703-0.232-3.371-4.054-1.447-7.332c0.713-1.214,1.546-2.273,2.453-3.243c1.992,1.617,3.979,3.501,4.588,5.256
	C402.236,381.172,399.4,383.43,395.512,383.239z M395.853,363.482c-4.117-3.297-7.958-6.952-7.397-9.844
	C389.612,347.766,413.675,348.732,395.853,363.482z"/>
<path d="M428.359,312.546c-2.042-0.987-4.114-1.906-6.203-2.756c-13.648-5.556-30.06-9.039-44.793-8.978
	c-26.627,0.111-56.211,9.013-72.875,30.872c-19.604,25.716-20.599,60.618,2.636,84.545c48.773,50.227,160.121,23.395,158.723-54.017
	C465.418,338.522,448.382,322.228,428.359,312.546z M351.971,429.677c-37.867-8.993-66.672-42.565-47.884-81.73
	c4.77-9.943,12.07-21.338,21.668-26.969c11.396-6.686,24.193-12.013,37.418-13.457c16.185-1.766,30.74,3.227,45.545,8.846
	c11.37,4.314,22.192,7.787,32.438,14.487c18.068,11.816,18.271,38.306,10.477,56.198
	C435.136,424.922,389.905,438.686,351.971,429.677z"/>
<path d="M101.818,228.258c6.388-6.774,13.008-13.66,17.737-21.517c1.649-2.74-2.253-5.865-4.481-3.457
	c-6.061,6.552-12.503,12.799-18.851,19.135c-5.411-5.639-10.809-11.289-16.084-17.058c-0.33-0.689-0.92-1.287-1.861-1.608
	c-0.135-0.046-0.271-0.092-0.406-0.139c-2.235-0.764-4.631,1.668-3.891,3.891c2.801,8.404,9.525,15.092,15.967,21.318
	c-1.355,1.404-2.728,2.792-4.051,4.223c-6.201,6.702-23.574,20.81-22.612,30.994c0.202,2.142,2.269,3.567,4.293,2.463
	c5.127-2.797,7.635-7.664,11.208-12.162c5.39-6.786,11.301-13.201,17.09-19.65c7.166,7.627,13.929,18.309,23.842,22.039
	c3.447,1.297,5.408-3.4,3.335-5.729C116.147,243.239,108.994,235.734,101.818,228.258z"/>
<path d="M183.201,228.258c6.388-6.774,13.008-13.66,17.737-21.517c1.649-2.74-2.253-5.865-4.481-3.457
	c-6.061,6.552-12.503,12.799-18.851,19.135c-5.411-5.639-10.809-11.289-16.084-17.058c-0.331-0.689-0.92-1.287-1.861-1.608
	c-0.135-0.046-0.271-0.092-0.406-0.139c-2.235-0.764-4.631,1.668-3.891,3.891c2.801,8.404,9.525,15.092,15.967,21.318
	c-1.355,1.404-2.727,2.792-4.051,4.223c-6.201,6.702-23.574,20.81-22.612,30.994c0.202,2.142,2.269,3.567,4.293,2.463
	c5.127-2.797,7.635-7.664,11.208-12.162c5.39-6.786,11.301-13.201,17.09-19.65c7.166,7.627,13.929,18.309,23.842,22.039
	c3.447,1.297,5.408-3.4,3.335-5.729C197.531,243.239,190.377,235.734,183.201,228.258z"/>
<path d="M264.585,228.258c6.388-6.774,13.008-13.66,17.737-21.517c1.649-2.74-2.253-5.865-4.481-3.457
	c-6.061,6.552-12.503,12.799-18.851,19.135c-5.411-5.639-10.809-11.289-16.084-17.058c-0.33-0.689-0.92-1.287-1.861-1.608
	c-0.135-0.046-0.271-0.092-0.406-0.139c-2.235-0.764-4.631,1.668-3.891,3.891c2.801,8.404,9.525,15.092,15.967,21.318
	c-1.355,1.404-2.727,2.792-4.051,4.223c-6.201,6.702-23.574,20.81-22.612,30.994c0.202,2.142,2.269,3.567,4.293,2.463
	c5.127-2.797,7.635-7.664,11.208-12.162c5.39-6.786,11.301-13.201,17.091-19.65c7.166,7.627,13.929,18.309,23.842,22.039
	c3.447,1.297,5.408-3.4,3.335-5.729C278.914,243.239,271.761,235.734,264.585,228.258z"/>
<path d="M96.407,308.766c6.388-6.774,13.008-13.66,17.737-21.517c1.649-2.74-2.253-5.865-4.481-3.457
	c-6.061,6.552-12.503,12.799-18.851,19.135c-5.411-5.639-10.809-11.289-16.084-17.058c-0.331-0.689-0.92-1.287-1.861-1.608
	c-0.135-0.046-0.271-0.092-0.406-0.139c-2.235-0.764-4.631,1.668-3.891,3.891c2.801,8.404,9.525,15.092,15.967,21.318
	c-1.355,1.404-2.727,2.793-4.051,4.223c-6.201,6.702-23.574,20.81-22.612,30.994c0.202,2.142,2.269,3.568,4.293,2.464
	c5.127-2.798,7.635-7.664,11.208-12.162c5.39-6.785,11.301-13.201,17.09-19.65c7.166,7.628,13.929,18.309,23.842,22.039
	c3.447,1.297,5.408-3.399,3.335-5.729C110.736,323.747,103.583,316.242,96.407,308.766z"/>
<path d="M177.79,308.766c6.388-6.774,13.008-13.66,17.737-21.517c1.649-2.74-2.253-5.865-4.481-3.457
	c-6.061,6.552-12.503,12.799-18.851,19.135c-5.411-5.639-10.809-11.289-16.084-17.058c-0.33-0.689-0.92-1.287-1.861-1.608
	c-0.135-0.046-0.271-0.092-0.406-0.139c-2.235-0.764-4.631,1.668-3.891,3.891c2.801,8.404,9.525,15.092,15.967,21.318
	c-1.355,1.404-2.727,2.793-4.051,4.223c-6.201,6.702-23.574,20.81-22.612,30.994c0.202,2.142,2.269,3.568,4.293,2.464
	c5.127-2.798,7.635-7.664,11.208-12.162c5.39-6.785,11.301-13.201,17.09-19.65c7.166,7.628,13.929,18.309,23.842,22.039
	c3.447,1.297,5.408-3.399,3.335-5.729C192.12,323.747,184.966,316.242,177.79,308.766z"/>
<path d="M259.174,308.766c6.388-6.774,13.008-13.66,17.737-21.517c1.649-2.74-2.253-5.865-4.481-3.457
	c-6.061,6.552-12.503,12.799-18.851,19.135c-5.411-5.639-10.809-11.289-16.084-17.058c-0.331-0.689-0.92-1.287-1.861-1.608
	c-0.135-0.046-0.27-0.092-0.406-0.139c-2.235-0.764-4.631,1.668-3.891,3.891c2.801,8.404,9.525,15.092,15.967,21.318
	c-1.355,1.404-2.727,2.793-4.051,4.223c-6.201,6.702-23.574,20.81-22.612,30.994c0.202,2.142,2.269,3.568,4.293,2.464
	c5.127-2.798,7.635-7.664,11.208-12.162c5.39-6.785,11.301-13.201,17.09-19.65c7.166,7.628,13.929,18.309,23.842,22.039
	c3.447,1.297,5.408-3.399,3.335-5.729C273.503,323.747,266.35,316.242,259.174,308.766z"/>
<path d="M87.207,388.735c6.388-6.775,13.008-13.66,17.737-21.517c1.649-2.74-2.253-5.865-4.481-3.457
	c-6.061,6.552-12.503,12.799-18.851,19.135c-5.411-5.639-10.809-11.289-16.084-17.058c-0.331-0.689-0.92-1.287-1.861-1.608
	c-0.135-0.046-0.271-0.092-0.406-0.139c-2.235-0.764-4.631,1.668-3.891,3.891c2.801,8.404,9.525,15.092,15.967,21.318
	c-1.355,1.404-2.727,2.793-4.051,4.223c-6.201,6.702-23.574,20.81-22.612,30.994c0.202,2.142,2.269,3.567,4.293,2.463
	c5.127-2.798,7.635-7.664,11.208-12.162c5.39-6.785,11.301-13.201,17.09-19.65c7.166,7.628,13.929,18.309,23.842,22.039
	c3.447,1.297,5.408-3.4,3.335-5.729C101.536,403.716,94.383,396.211,87.207,388.735z"/>
<path d="M168.59,388.735c6.388-6.775,13.008-13.66,17.737-21.517c1.649-2.74-2.253-5.865-4.481-3.457
	c-6.061,6.552-12.503,12.799-18.851,19.135c-5.411-5.639-10.809-11.289-16.084-17.058c-0.331-0.689-0.92-1.287-1.861-1.608
	c-0.135-0.046-0.271-0.092-0.406-0.139c-2.235-0.764-4.631,1.668-3.891,3.891c2.801,8.404,9.525,15.092,15.967,21.318
	c-1.355,1.404-2.727,2.793-4.051,4.223c-6.201,6.702-23.574,20.81-22.612,30.994c0.202,2.142,2.269,3.567,4.293,2.463
	c5.127-2.798,7.635-7.664,11.208-12.162c5.39-6.785,11.301-13.201,17.09-19.65c7.166,7.628,13.929,18.309,23.842,22.039
	c3.447,1.297,5.408-3.4,3.335-5.729C182.92,403.716,175.766,396.211,168.59,388.735z"/>
<path d="M249.974,388.735c6.388-6.775,13.008-13.66,17.737-21.517c1.649-2.74-2.253-5.865-4.481-3.457
	c-6.061,6.552-12.503,12.799-18.851,19.135c-5.411-5.639-10.809-11.289-16.084-17.058c-0.331-0.689-0.92-1.287-1.861-1.608
	c-0.135-0.046-0.271-0.092-0.406-0.139c-2.235-0.764-4.631,1.668-3.891,3.891c2.801,8.404,9.525,15.092,15.967,21.318
	c-1.355,1.404-2.727,2.793-4.051,4.223c-6.201,6.702-23.574,20.81-22.612,30.994c0.202,2.142,2.269,3.567,4.293,2.463
	c5.127-2.798,7.635-7.664,11.208-12.162c5.39-6.785,11.301-13.201,17.09-19.65c7.166,7.628,13.929,18.309,23.842,22.039
	c3.447,1.297,5.408-3.4,3.335-5.729C264.303,403.716,257.15,396.211,249.974,388.735z"/>
<path d="M307.436,264.039c0.202,2.142,2.269,3.567,4.293,2.463c5.127-2.797,7.635-7.664,11.208-12.162
	c5.39-6.786,11.301-13.201,17.09-19.65c7.166,7.627,13.929,18.309,23.842,22.039c3.447,1.297,5.408-3.4,3.335-5.729
	c-6.906-7.761-14.06-15.266-21.236-22.742c6.388-6.774,13.008-13.66,17.737-21.517c1.649-2.74-2.253-5.865-4.481-3.457
	c-6.061,6.552-12.503,12.799-18.851,19.135c-5.411-5.639-10.809-11.289-16.084-17.058c-0.331-0.689-0.92-1.287-1.861-1.608
	c-0.135-0.046-0.271-0.092-0.406-0.139c-2.235-0.764-4.631,1.668-3.891,3.891c2.801,8.404,9.525,15.092,15.967,21.318
	c-1.355,1.404-2.727,2.792-4.051,4.223C323.848,239.748,306.474,253.856,307.436,264.039z"/>
<path d="M388.82,264.039c0.202,2.142,2.269,3.567,4.293,2.463c5.127-2.797,7.635-7.664,11.208-12.162
	c5.39-6.786,11.301-13.201,17.091-19.65c7.166,7.627,13.929,18.309,23.842,22.039c3.447,1.297,5.408-3.4,3.335-5.729
	c-6.906-7.761-14.06-15.266-21.236-22.742c6.388-6.774,13.008-13.66,17.737-21.517c1.649-2.74-2.253-5.865-4.481-3.457
	c-6.06,6.552-12.503,12.799-18.851,19.135c-5.411-5.639-10.809-11.289-16.084-17.058c-0.331-0.689-0.92-1.287-1.861-1.608
	c-0.135-0.046-0.271-0.092-0.406-0.139c-2.235-0.764-4.631,1.668-3.891,3.891c2.801,8.404,9.525,15.092,15.967,21.318
	c-1.355,1.404-2.727,2.792-4.051,4.223C405.231,239.748,387.858,253.856,388.82,264.039z"/>
<g>
</g>
<g>
</g>
<g>
</g>
<g>
</g>
<g>
</g>
<g>
</g>
<g>
</g>
<g>
</g>
<g>
</g>
<g>
</g>
<g>
</g>
<g>
</g>
<g>
</g>
<g>
</g>
<g>
</g>
</svg>
