<svg height="512pt" viewBox="-24 0 512 512.00149" width="512pt" xmlns="http://www.w3.org/2000/svg"><path d="m186.355469 127.839844c0 23.296875-18.886719 42.179687-42.183594 42.179687-23.292969 0-42.179687-18.882812-42.179687-42.179687s18.886718-42.179688 42.179687-42.179688c23.296875 0 42.183594 18.882813 42.183594 42.179688zm0 0" fill="#ffcc5a"/><g fill="#00bdf2"><path d="m453.65625 135.054688c.03125.214843.054688.433593.078125.652343-.023437-.21875-.046875-.4375-.078125-.652343zm0 0"/><path d="m452.964844 132.039062c.046875.140626.089844.285157.132812.425782-.042968-.140625-.085937-.28125-.132812-.425782zm0 0"/><path d="m452.824219 131.617188c.046875.140624.09375.28125.140625.421874-.046875-.140624-.09375-.28125-.140625-.421874zm0 0"/><path d="m453.214844 132.894531c.078125.285157.148437.570313.210937.859375-.0625-.289062-.132812-.574218-.210937-.859375zm0 0"/><path d="m453.511719 134.1875c.027343.140625.054687.289062.078125.429688-.023438-.144532-.050782-.289063-.078125-.429688zm0 0"/><path d="m452.046875 129.742188c.066406.136718.128906.273437.191406.414062-.0625-.136719-.125-.277344-.191406-.414062zm0 0"/><path d="m452.507812 130.777344c.054688.136718.109376.277344.160157.417968-.050781-.140624-.105469-.28125-.160157-.417968zm0 0"/><path d="m451.84375 129.335938c.070312.136718.136719.269531.203125.40625-.066406-.132813-.132813-.269532-.203125-.40625zm0 0"/><path d="m452.667969 131.195312c.054687.140626.105469.28125.15625.421876-.050781-.140626-.101563-.28125-.15625-.421876zm0 0"/><path d="m453.820312 137.015625c.003907.144531.007813.289063.007813.4375 0-.148437 0-.292969-.007813-.4375zm0 0"/><path d="m453.828125 137.453125c0 .070313.003906.144531 0 .214844.003906-.070313.003906-.144531 0-.214844zm0 0"/><path d="m323.046875 123.617188c31.007813-1.082032 31.886719 40.429687 75.515625 1.8125 12.652344-11.195313 22.546875-20.949219 30.246094-29.167969l-55.21875-78.550781c-5.761719-8.191407-17.066406-10.164063-25.257813-4.40625l-109.449219 76.945312c-8.191406 5.757812-10.164062 17.066406-4.40625 25.257812l58.238282 82.839844h.695312c-.027344-8.863281.75-73.722656 29.636719-74.730468zm15.535156-67.65625c9.449219-6.644532 22.492188-4.367188 29.132813 5.078124 6.640625 9.449219 4.367187 22.492188-5.082032 29.136719-9.445312 6.640625-22.492187 4.367188-29.132812-5.082031s-4.367188-22.492188 5.082031-29.132812zm0 0"/><path d="m453.734375 135.707031c.015625.144531.027344.289063.039063.4375-.011719-.148437-.023438-.292969-.039063-.4375zm0 0"/><path d="m380.792969 198.347656 65.332031-45.929687c.191406-.136719.382812-.273438.566406-.414063-.183594.140625-.375.277344-.566406.414063zm0 0"/><path d="m453.773438 136.144531c.023437.289063.039062.582031.046874.871094-.007812-.289063-.023437-.582031-.046874-.871094zm0 0"/><path d="m450.664062 127.355469c.089844.128906.175782.257812.261719.386719-.085937-.128907-.171875-.261719-.261719-.386719zm0 0"/><path d="m450.464844 148.113281c-.085938.121094-.171875.242188-.261719.359375.089844-.117187.175781-.238281.261719-.359375zm0 0"/><path d="m451.738281 146.046875c-.101562.195313-.207031.386719-.316406.578125.105469-.191406.214844-.382812.316406-.578125zm0 0"/><path d="m450.066406 148.652344c-.089844.117187-.179687.234375-.277344.347656.097657-.113281.1875-.230469.277344-.347656zm0 0"/><path d="m450.71875 147.75c-.082031.121094-.167969.246094-.253906.363281.085937-.117187.171875-.242187.253906-.363281zm0 0"/><path d="m450.960938 147.378906c-.078126.125-.160157.25-.242188.371094.082031-.121094.164062-.246094.242188-.371094zm0 0"/><path d="m451.308594 146.816406c-.074219.125-.152344.253906-.230469.378906.078125-.125.15625-.25.230469-.378906zm0 0"/><path d="m447.058594 151.71875c-.121094.09375-.242188.191406-.367188.285156.125-.09375.246094-.191406.367188-.285156zm0 0"/><path d="m448.589844 150.339844c-.480469.484375-.992188.945312-1.53125 1.378906.539062-.433594 1.050781-.894531 1.53125-1.378906zm0 0"/><path d="m449.648438 149.171875c-.191407.230469-.386719.457031-.589844.675781.203125-.21875.398437-.445312.589844-.675781zm0 0"/><path d="m448.902344 150.015625c-.101563.109375-.207032.21875-.3125.324219.105468-.105469.210937-.214844.3125-.324219zm0 0"/></g><path d="m453.828125 137.453125c0-.148437-.003906-.292969-.007813-.4375-.007812-.289063-.023437-.582031-.046874-.871094-.011719-.148437-.023438-.292969-.039063-.4375-.023437-.21875-.050781-.4375-.082031-.652343-.019532-.144532-.042969-.292969-.0625-.4375-.027344-.144532-.050782-.289063-.078125-.429688-.027344-.144531-.058594-.289062-.089844-.433594-.0625-.289062-.128906-.574218-.207031-.859375-.039063-.144531-.078125-.285156-.121094-.429687-.039062-.140625-.085938-.28125-.128906-.425782-.046875-.140624-.09375-.28125-.144532-.421874-.046874-.140626-.097656-.28125-.152343-.421876-.050781-.136718-.105469-.277343-.164063-.417968-.085937-.207032-.171875-.414063-.265625-.621094-.0625-.136719-.125-.273438-.191406-.410156-.066406-.136719-.132813-.273438-.203125-.410156-.277344-.539063-.585938-1.070313-.921875-1.59375-.082031-.128907-.171875-.257813-.257813-.386719-.046874-.0625-.089843-.128907-.136718-.191407l-21.722656-30.902343c-7.699219 8.222656-17.59375 17.976562-30.242188 29.171875-43.632812 38.613281-44.511719-2.894532-75.515625-1.8125-28.886719 1.003906-29.667969 65.863281-29.640625 74.730468h87.382812l65.335938-45.933593c.191406-.132813.382812-.273438.566406-.414063.121094-.09375.246094-.1875.367188-.285156.539062-.433594 1.050781-.894531 1.53125-1.378906.105468-.105469.210937-.214844.3125-.324219.050781-.054687.105468-.109375.15625-.164063.203125-.222656.398437-.445312.589844-.675781.046874-.058593.09375-.117187.140624-.171875.097657-.117187.1875-.234375.277344-.351562.046875-.058594.089844-.117188.136719-.175782.089844-.121093.175781-.238281.261719-.359374.085937-.121094.171875-.242188.253906-.363282.082031-.125.164062-.246094.242188-.371094.039062-.0625.078124-.125.117187-.1875.078125-.125.15625-.25.230469-.375.039062-.066406.074218-.128906.113281-.191406.109375-.191406.214844-.382812.316406-.578125.511719-.972656.929688-1.984375 1.257813-3.023437.042968-.140625.085937-.277344.125-.417969.101562-.347656.191406-.699219.269531-1.054687.03125-.140626.0625-.28125.089844-.425782.011719-.070312.027343-.140625.039062-.210937.027344-.144531.054688-.285157.078125-.429688.019532-.144531.042969-.285156.0625-.429687.03125-.214844.054688-.429688.078125-.648438.007813-.070312.011719-.144531.019531-.214844.015626-.148437.023438-.289062.035157-.4375.019531-.289062.03125-.578124.035156-.871093 0-.070313.003906-.144531.003906-.214844 0-.074219 0-.148437-.003906-.21875zm0 0" fill="#e4e5e8"/><path d="m367.726562 61.046875c-6.644531-9.449219-19.6875-11.722656-29.136718-5.082031-9.449219 6.640625-11.722656 19.6875-5.082032 29.132812 6.644532 9.449219 19.6875 11.726563 29.136719 5.082032 9.445313-6.640626 11.722657-19.683594 5.082031-29.132813zm0 0" fill="#ffcc5a"/><path d="m208.617188 474.636719c1.398437 15.496093 14.390624 27.363281 29.949218 27.363281h114.441406c15.558594 0 28.550782-11.867188 29.949219-27.363281l21.148438-233.796875h-216.632813zm0 0" fill="#ed3c8f"/><path d="m187.140625 198.347656c-11.734375 0-21.246094 9.511719-21.246094 21.246094s9.511719 21.246094 21.246094 21.246094h217.292969c11.734375 0 21.246094-9.511719 21.246094-21.246094s-9.511719-21.246094-21.246094-21.246094zm0 0" fill="#f7b7cb"/><path d="m196.355469 127.839844c0-6.316406-1.128907-12.375-3.195313-17.984375-.0625-.175781-.125-.347657-.195312-.519531-7.480469-19.667969-26.53125-33.679688-48.792969-33.679688-28.769531 0-52.179687 23.410156-52.179687 52.183594 0 28.773437 23.40625 52.179687 52.179687 52.179687s52.183594-23.40625 52.183594-52.179687zm-52.183594 32.183594c-17.746094 0-32.179687-14.4375-32.179687-32.183594s14.433593-32.183594 32.179687-32.183594c12.257813 0 22.933594 6.890625 28.367187 16.996094-7.597656 12.351562-15.601562 10.96875-18.394531 10.484375-5.449219-.945313-10.617187 2.710937-11.558593 8.148437-.941407 5.445313 2.707031 10.617188 8.148437 11.558594 1.859375.324219 4.015625.554688 6.375.554688 5.136719 0 11.238281-1.09375 17.359375-4.699219-4.464844 12.417969-16.359375 21.324219-30.296875 21.324219zm0 0"/><path d="m458.714844 121.40625-76.949219-109.449219c-4.324219-6.148437-10.777344-10.242187-18.175781-11.53125-7.398438-1.289062-14.859375.378907-21.003906 4.699219l-109.445313 76.9375c-6.152344 4.324219-10.253906 10.78125-11.542969 18.183594-1.292968 7.402344.375 14.867187 4.699219 21.011718l47.15625 67.085938h-86.316406c-17.226563 0-31.238281 14.019531-31.238281 31.25 0 8.347656 3.25 16.191406 9.140624 22.082031 3.734376 3.746094 8.25 6.421875 13.179688 7.882813l20.4375 225.980468c1.882812 20.785157 19.039062 36.460938 39.910156 36.460938h114.441406c20.875 0 38.03125-15.675781 39.910157-36.460938l20.441406-225.992187c12.898437-3.847656 22.324219-15.820313 22.324219-29.953125 0-8.351562-3.253906-16.203125-9.148438-22.078125-4.238281-4.25-9.488281-7.128906-15.207031-8.410156l40.546875-28.507813h.003906c1.980469-1.394531 3.726563-3 5.230469-4.765625.152344-.175781.296875-.355469.445313-.535156.363281-.449219.710937-.90625 1.042968-1.375.132813-.183594.265625-.375.394532-.5625.0625-.097656.125-.191406.1875-.285156.253906-.382813.492187-.773438.726562-1.164063.054688-.097656.113281-.199218.171875-.296875 5.261719-9.1875 5.113281-20.988281-1.363281-30.207031zm-217.417969-17.722656c.375-2.136719 1.558594-4.003906 3.339844-5.253906l109.449219-76.941407c1.777343-1.25 3.929687-1.730469 6.066406-1.359375 2.140625.375 4.003906 1.554688 5.25 3.332032l50.492187 71.816406c-7.167969 7.320312-15.199219 14.914062-23.957031 22.664062-10.417969 9.222656-18.609375 13.921875-24.339844 13.96875-4.042968.035156-7.441406-2.296875-13.082031-6.410156-7.566406-5.523438-16.988281-12.402344-31.820313-11.875-25.191406.882812-34.339843 31.242188-37.582031 56.53125l-42.457031-60.398438c-1.25-1.78125-1.730469-3.9375-1.359375-6.074218zm131.703125 370.054687c-.941406 10.410157-9.535156 18.261719-19.992188 18.261719h-114.441406c-10.457031 0-19.050781-7.851562-19.992187-18.261719l-20.15625-222.894531h194.738281zm42.683594-254.144531c0 6.203125-5.046875 11.25-11.25 11.25h-.070313c-.085937 0-.171875-.003906-.257812-.003906h-216.632813c-.085937 0-.171875.003906-.257812.003906h-.078125c-3 0-5.820313-1.167969-7.949219-3.300781-2.121094-2.121094-3.289062-4.945313-3.289062-7.949219 0-6.203125 5.042968-11.25 11.238281-11.25h217.296875c3.003906 0 5.824218 1.167969 7.957031 3.3125 2.125 2.117188 3.292969 4.9375 3.292969 7.9375zm-38.050782-31.25h-74.011718c1.308594-28.054688 8.460937-54.339844 19.773437-54.734375 7.921875-.277344 12.964844 3.394531 19.332031 8.042969 6.589844 4.808594 14.054688 10.253906 24.773438 10.253906h.261719c11-.089844 22.894531-6.125 37.429687-18.992188 8.066406-7.136718 15.566406-14.175781 22.390625-21.011718l14.769531 21c.148438.214844.289063.433594.414063.65625.011719.019531.023437.042968.035156.0625.414063.742187.699219 1.53125.863281 2.332031.046876.226563.082032.453125.109376.683594.003906.050781.011718.101562.015624.152343 0 .011719.003907.027344.003907.042969.007812.09375.015625.191407.019531.289063.007812.164062.015625.328125.011719.496094v.039062c0 .183594-.007813.367188-.023438.546875 0 .011719 0 .023437-.003906.035156-.082031 1.027344-.359375 2.035157-.820313 2.964844-.007812.011719-.011718.023437-.019531.035156-.433593.867188-1.03125 1.667969-1.777343 2.351563-.003907.003906-.011719.007812-.015626.011718-.144531.132813-.300781.261719-.457031.386719-.015625.011719-.035156.023438-.050781.039063-.039062.027344-.078125.058594-.113281.085937-.015625.007813-.027344.019531-.039063.027344-.042968.03125-.085937.066406-.132812.097656v-.003906zm0 0"/><path d="m350.652344 103.96875c6.140625 0 12.339844-1.824219 17.734375-5.613281 6.753906-4.75 11.253906-11.84375 12.671875-19.980469 1.417968-8.132812-.414063-16.332031-5.164063-23.085938-9.800781-13.941406-29.121093-17.3125-43.0625-7.511718-6.757812 4.75-11.257812 11.84375-12.675781 19.980468-1.417969 8.132813.414062 16.332032 5.164062 23.085938 6.011719 8.550781 15.597657 13.125 25.332032 13.125zm-10.792969-32.777344c.5-2.871094 2.089844-5.375 4.472656-7.050781 1.90625-1.339844 4.09375-1.980469 6.261719-1.980469 3.433594 0 6.820312 1.613282 8.941406 4.632813 1.675782 2.382812 2.324219 5.277343 1.824219 8.148437-.503906 2.871094-2.089844 5.375-4.476563 7.050782-4.917968 3.460937-11.742187 2.273437-15.203124-2.648438-1.675782-2.386719-2.320313-5.28125-1.820313-8.152344zm0 0"/><path d="m245.617188 290.121094c-.5-5.5-5.351563-9.550782-10.863282-9.050782-5.5.5-9.554687 5.359376-9.054687 10.863282l15.171875 167.027344c.472656 5.191406 4.832031 9.09375 9.945312 9.09375.304688 0 .609375-.011719.917969-.039063 5.5-.5 9.554687-5.363281 9.054687-10.867187zm0 0"/><path d="m340.746094 448.054688c-5.523438 0-10 4.476562-10 10v.027343c0 5.519531 4.476562 9.984375 10 9.984375 5.519531 0 10-4.488281 10-10.011718 0-5.523438-4.480469-10-10-10zm0 0"/><path d="m356.820312 281.070312c-5.5-.492187-10.363281 3.550782-10.863281 9.050782l-12.167969 133.960937c-.5 5.5 3.554688 10.363281 9.054688 10.863281.308594.027344.613281.042969.917969.042969 5.113281 0 9.476562-3.90625 9.945312-9.097656l12.167969-133.957031c.5-5.503906-3.554688-10.367188-9.054688-10.863282zm0 0"/><path d="m104.566406 72.457031c3.355469-4.386719 2.523438-10.664062-1.863281-14.019531-39.714844-30.40625-87.640625-45.890625-89.664063-46.535156-5.261718-1.679688-10.886718 1.226562-12.5625 6.488281-1.679687 5.261719 1.226563 10.886719 6.488282 12.5625.460937.148437 46.601562 15.054687 83.582031 43.363281 1.816406 1.390625 3.953125 2.058594 6.070313 2.058594 3.007812.003906 5.980468-1.347656 7.949218-3.917969zm0 0"/><path d="m82.269531 91.292969c-13.910156-11.457031-36.855469-20.261719-37.824219-20.628907-5.160156-1.964843-10.941406.625-12.90625 5.789063-1.964843 5.160156.628907 10.9375 5.789063 12.902344 5.753906 2.1875 22.761719 9.582031 32.226563 17.375 1.863281 1.535156 4.113281 2.28125 6.351562 2.28125 2.886719 0 5.75-1.242188 7.726562-3.640625 3.507813-4.261719 2.898438-10.566406-1.363281-14.078125zm0 0"/><path d="m295.785156 305.003906c-5.519531 0-9.996094 4.476563-9.996094 10v112.953125c0 5.523438 4.476563 10 9.996094 10 5.523438 0 10-4.476562 10-10v-112.953125c0-5.523437-4.476562-10-10-10zm0 0"/></svg>