<svg height="512pt" viewBox="-15 0 512 512.00053" width="512pt" xmlns="http://www.w3.org/2000/svg"><path d="m361.492188 37.96875h-14.863282v-20.300781c0-9.757813-7.910156-17.667969-17.667968-17.667969h-328.960938v432.417969 18.984375c0 10.484375 8.5 18.984375 18.984375 18.984375h342.507813c9.757812 0 17.667968-7.910157 17.667968-17.667969v-397.082031c0-9.757813-7.910156-17.667969-17.667968-17.667969zm0 0" fill="#e1d3ce"/><path d="m379.15625 55.632812v397.085938c0 9.761719-7.910156 17.664062-17.660156 17.664062h-18.335938c9.761719 0 17.671875-7.902343 17.671875-17.664062v-397.085938c0-8.292968-6.5-15.761718-14.207031-17.660156h14.867188c9.75 0 17.664062 7.902344 17.664062 17.660156zm0 0" fill="#cdbfba"/><path d="m328.960938 432.417969h-323.6875c-2.910157 0-5.273438-2.359375-5.273438-5.273438v-421.871093c0-2.914063 2.359375-5.273438 5.273438-5.273438h323.6875c9.757812 0 17.667968 7.910156 17.667968 17.667969v397.085937c0 9.753906-7.910156 17.664063-17.667968 17.664063zm0 0" fill="#baed6a"/><path d="m346.628906 17.667969v397.085937c0 9.757813-7.914062 17.660156-17.664062 17.660156h-23.472656c9.761718 0 17.664062-7.902343 17.664062-17.660156v-397.085937c0-9.761719-7.902344-17.66406275-17.664062-17.66406275h23.472656c9.75 0 17.664062 7.90234375 17.664062 17.66406275zm0 0" fill="#a3e72d"/><path d="m287.300781 125.496094h-227.972656c-2.851563 0-5.160156-2.3125-5.160156-5.160156v-46.636719c0-2.847657 2.308593-5.15625 5.160156-5.15625h227.972656c2.847657 0 5.160157 2.308593 5.160157 5.15625v46.636719c0 2.851562-2.3125 5.160156-5.160157 5.160156zm0 0" fill="#fff5f5"/><path d="m292.460938 73.699219v46.632812c0 2.859375-2.308594 5.160157-5.15625 5.160157h-20c2.847656 0 5.160156-2.300782 5.160156-5.160157v-46.632812c0-2.847657-2.3125-5.160157-5.160156-5.160157h20c2.847656 0 5.15625 2.3125 5.15625 5.160157zm0 0" fill="#efe2dd"/><path d="m481.296875 402.816406h-55.414063v9.164063l23.046876 48.628906c1.863281 3.929687 7.460937 3.929687 9.324218 0l23.042969-48.628906zm0 0" fill="#e1d3ce"/><path d="m481.296875 411.976562-23.050781 48.636719c-1.855469 3.929688-7.457032 3.929688-9.316406 0l-2.042969-4.324219 20.246093-44.308593zm0 0" fill="#cdbfba"/><path d="m425.882812 107.816406h55.414063v304.164063h-55.414063zm0 0" fill="#ef6161"/><path d="m467.132812 115.503906h14.164063v296.476563h-14.164063zm0 0" fill="#ea4444"/><path d="m481.296875 94.257812h-55.414063v-54.992187c0-9.253906 7.5-16.753906 16.753907-16.753906h21.910156c9.25 0 16.75 7.5 16.75 16.753906zm0 0" fill="#80cf00"/><path d="m481.296875 39.261719v49.324219h-14.164063v-49.324219c0-9.246094-7.503906-16.746094-16.757812-16.746094h14.175781c9.246094 0 16.746094 7.5 16.746094 16.746094zm0 0" fill="#6db000"/><path d="m425.882812 88.585938h55.414063v27.425781h-55.414063zm0 0" fill="#f7de92"/><path d="m467.132812 88.585938h14.164063v27.425781h-14.164063zm0 0" fill="#f5d573"/><path d="m67.121094 432.417969h-32.839844v74.21875c0 4.117187 4.453125 6.691406 8.023438 4.640625l22.144531-12.738282c1.652343-.953124 3.6875-.953124 5.339843 0l22.144532 12.738282c3.570312 2.050781 8.027344-.523438 8.027344-4.640625v-74.21875zm0 0" fill="#ef6161"/><path d="m99.953125 432.414062v74.222657c0 4.117187-4.445313 6.695312-8.015625 4.644531l-6.820312-3.921875c.03125-.238281.054687-.476563.054687-.722656v-74.222657zm0 0" fill="#ea4444"/><g fill="#6db000"><path d="m264.378906 298.867188c0-4.273438-3.464844-7.738282-7.738281-7.738282h-117.753906c-4.273438 0-7.738281 3.464844-7.738281 7.738282 0 4.273437 3.464843 7.738281 7.738281 7.738281h117.753906c4.273437 0 7.738281-3.464844 7.738281-7.738281zm0 0"/><path d="m309.386719 291.128906h-16.378907c-4.273437 0-7.738281 3.464844-7.738281 7.738282 0 4.273437 3.464844 7.738281 7.738281 7.738281h16.378907c4.273437 0 7.738281-3.464844 7.738281-7.738281 0-4.273438-3.464844-7.738282-7.738281-7.738282zm0 0"/><path d="m138.886719 340.261719c-4.273438 0-7.738281 3.464843-7.738281 7.738281s3.464843 7.738281 7.738281 7.738281h43.988281c4.273438 0 7.734375-3.464843 7.734375-7.738281s-3.460937-7.738281-7.734375-7.738281zm0 0"/><path d="m309.386719 340.261719h-91.058594c-4.273437 0-7.738281 3.464843-7.738281 7.738281s3.464844 7.738281 7.738281 7.738281h91.058594c4.273437 0 7.738281-3.464843 7.738281-7.738281s-3.464844-7.738281-7.738281-7.738281zm0 0"/><path d="m209.699219 370.855469h-70.8125c-4.273438 0-7.738281 3.464843-7.738281 7.738281s3.464843 7.738281 7.738281 7.738281h70.8125c4.273437 0 7.738281-3.464843 7.738281-7.738281-.003906-4.273438-3.464844-7.738281-7.738281-7.738281zm0 0"/><path d="m309.386719 370.855469h-64.609375c-4.273438 0-7.738282 3.464843-7.738282 7.738281s3.464844 7.738281 7.738282 7.738281h64.609375c4.273437 0 7.738281-3.464843 7.738281-7.738281s-3.464844-7.738281-7.738281-7.738281zm0 0"/></g></svg>